<?xml version="1.0" encoding="utf-8"?>
<!-- Generator: Adobe Illustrator 23.0.1, SVG Export Plug-In . SVG Version: 6.00 Build 0)  -->
<svg version="1.1" id="Layer_1" xmlns="http://www.w3.org/2000/svg" xmlns:xlink="http://www.w3.org/1999/xlink" x="0px" y="0px"
	 viewBox="0 0 2498 2500" style="enable-background:new 0 0 2498 2500;" xml:space="preserve">
<style type="text/css">
	.st0{fill:#FFFFFF;stroke:#000000;stroke-miterlimit:10;}
	.st1{stroke:#000000;stroke-miterlimit:10;}
</style>
<path class="st0" d="M587.9,0h1322.2C2235.3,0,2499,263.7,2499,588.9v1322.2c0,325.2-263.7,588.9-588.9,588.9H587.9
	C262.7,2500-1,2236.3-1,1911.1V588.9C-1,263.7,262.7,0,587.9,0z"/>
<path class="st1" d="M1632.3,379.3h93.1V2500h-391.9V678.1C1333.5,513.1,1467.2,379.3,1632.3,379.3z"/>
<polygon class="st1" points="2056.4,1527 1002.4,1527 1002.4,1148.6 2100.4,1148.6 "/>
<rect x="1725.4" y="379.3" class="st1" width="391.9" height="343.6"/>
<rect x="1613.9" y="635.1" class="st1" width="283.8" height="229.7"/>
<path class="st0" d="M1773.4,1066.6h175c93.3,0,168.9-75.6,168.9-168.9v0c0-96.5-78.2-174.6-174.6-174.6h-48.3
	c-93.3,0-168.9,75.6-168.9,168.9v126.7C1725.4,1045.1,1746.8,1066.6,1773.4,1066.6z"/>
</svg>
