<?xml version="1.0" encoding="utf-8"?>
<!-- Generator: Adobe Illustrator 23.0.1, SVG Export Plug-In . SVG Version: 6.00 Build 0)  -->
<svg version="1.1" id="Layer_1" xmlns="http://www.w3.org/2000/svg" xmlns:xlink="http://www.w3.org/1999/xlink" x="0px" y="0px"
	 viewBox="0 0 2498 2500" style="enable-background:new 0 0 2498 2500;" xml:space="preserve">
<style type="text/css">
	.st0{stroke:#000000;stroke-miterlimit:10;}
	.st1{fill:#FFFFFF;}
</style>
<rect x="-1" class="st0" width="2500" height="2500"/>
<path class="st1" d="M1449.5,379.3h275.9V2500h-391.9V495.3C1333.5,431.3,1385.4,379.3,1449.5,379.3z"/>
<polygon class="st1" points="2056.4,1527 1002.4,1527 1002.4,1148.6 2100.4,1148.6 "/>
<rect x="1725.4" y="379.3" class="st1" width="391.9" height="343.6"/>
<rect x="1613.9" y="635.1" class="st1" width="283.8" height="229.7"/>
<path class="st0" d="M1773.4,1066.6h295.9c26.5,0,48-21.5,48-48V776.7c0-29.7-24-53.7-53.7-53.7h-290.2c-26.5,0-48,21.5-48,48v247.6
	C1725.4,1045.1,1746.8,1066.6,1773.4,1066.6z"/>
</svg>
