<?xml version="1.0" encoding="utf-8"?>
<!-- Generator: Adobe Illustrator 23.0.1, SVG Export Plug-In . SVG Version: 6.00 Build 0)  -->
<svg version="1.1" xmlns="http://www.w3.org/2000/svg" xmlns:xlink="http://www.w3.org/1999/xlink" x="0px" y="0px"
	 viewBox="0 0 1280 1024" style="enable-background:new 0 0 1280 1024;" xml:space="preserve">
<style type="text/css">
	.st0{fill:#FFFFFF;stroke:#000000;}
	.st1{fill:#FFFFFF;stroke:#000000;stroke-width:2;stroke-miterlimit:10;}
	.st2{stroke:#000000;}
	.st3{fill:none;}
	.st4{fill:#FFFFFF;}
	.st5{font-family:'MicrosoftSansSerif';}
	.st6{font-size:16.7085px;}
	.st7{letter-spacing:3;}
	.st8{letter-spacing:1;}
	.st9{font-family:'MyriadPro-Regular';}
	.st10{font-size:11.809px;}
	.st11{fill:#8D6B36;}
	.st12{display:none;}
	.st13{display:inline;fill:none;stroke:#000000;stroke-width:4;}
	.st14{display:none;opacity:0.25;}
</style>
<g id="Layer_2">
	<polygon class="st0" points="632.9,562.5 556.1,535 632.9,507.6 709.7,535 	"/>
	<polygon class="st1" points="632.9,558.7 566.7,535 632.9,511.4 699.2,535 	"/>
	<polygon class="st2" points="625.4,556 566.7,535 625.4,514.1 	"/>
	<polygon class="st2" points="640.4,556 699.1,535 640.4,514.1 	"/>
	<rect x="612.5" y="527.6" class="st3" width="45.9" height="17"/>
	<text transform="matrix(1 0 0 1 612.5371 539.5479)"><tspan x="0" y="0" class="st4 st5 st6 st7">R</tspan><tspan x="15.4" y="0" class="st5 st6 st7">B</tspan><tspan x="29.9" y="0" class="st4 st5 st6 st8">F</tspan></text>
	<circle class="st4" cx="604.8" cy="536.1" r="2.2"/>
	<circle class="st4" cx="661.4" cy="536.1" r="2.2"/>
	<rect x="585.3" y="531.4" class="st3" width="17.3" height="15"/>
	<text transform="matrix(1 0 0 1 585.2764 539.7861)" class="st4 st9 st10">20</text>
	<rect x="668.4" y="531.4" class="st3" width="17.3" height="15"/>
	<text transform="matrix(1 0 0 1 668.3945 539.7861)" class="st4 st9 st10">18</text>
	<polygon class="st11" points="625.6,503.1 616.9,496.9 608.3,503.2 611.5,493.1 602.8,486.9 613.5,486.8 616.7,476.6 620.1,486.7 
		630.8,486.6 622.2,493 	"/>
	<polygon class="st11" points="640.9,503.1 649.5,496.9 658.1,503.2 654.9,493.1 663.6,486.9 652.9,486.8 649.7,476.6 646.3,486.7 
		635.7,486.6 644.2,493 	"/>
</g>
<g id="Layer_3" class="st12">
	<line class="st13" x1="632.9" y1="501.6" x2="632.9" y2="573"/>
	<line class="st13" x1="632.9" y1="532.2" x2="625.4" y2="532.2"/>
	<line class="st13" x1="625.4" y1="496.5" x2="625.4" y2="567.8"/>
	<line class="st13" x1="640.4" y1="496.5" x2="640.4" y2="567.8"/>
	<line class="st13" x1="640.4" y1="532.2" x2="632.9" y2="532.2"/>
</g>
<g id="Layer_1" class="st14">
	
		<image style="display:inline;overflow:visible;" width="1200" height="732" xlink:href="1200px-Rosenborg_Trondheim_logo.svg.png"  transform="matrix(0.1256 0 0 0.1256 558.4404 473)">
	</image>
</g>
</svg>
