<?xml version="1.0" encoding="UTF-8"?>
<svg width="20px" height="22px" viewBox="0 0 20 22" version="1.1" xmlns="http://www.w3.org/2000/svg" xmlns:xlink="http://www.w3.org/1999/xlink">
    <!-- Generator: Sketch 44.1 (41455) - http://www.bohemiancoding.com/sketch -->
    <title>ASSESSMENT</title>
    <desc>Created with Sketch.</desc>
    <defs></defs>
    <g id="Assignment" stroke="none" stroke-width="1" fill="none" fill-rule="evenodd">
        <g id="New-assignment" transform="translate(-766.000000, -726.000000)">
            <g id="ASSESSMENT" transform="translate(766.000000, 726.000000)">
                <path d="M19.1379713,13.89655 L19.1379713,16.1500446 C19.1379713,16.3613097 18.9748965,16.5256271 18.7652288,16.5256271 L17.6470013,16.5256271 L17.6470013,19.1547041 C17.6470013,20.1875558 16.8083307,21.0326162 15.7832889,21.0326162 L1.86371245,21.0326162 C0.838670603,21.0326162 0,20.1875558 0,19.1547041 L0,1.87791217 C0,0.845060474 0.838670603,0 1.86371245,0 L15.7832889,0 C16.8083307,0 17.6470013,0.845060474 17.6470013,1.87791217 L17.6470013,4.5069892 L18.7652288,4.5069892 C18.9748965,4.5069892 19.1379713,4.67130651 19.1379713,4.88257163 L19.1379713,7.13606623 C19.1379713,7.34733135 18.9748965,7.51164866 18.7652288,7.51164866 L17.6470013,7.51164866 L17.6470013,9.01397839 L18.7652288,9.01397839 C18.9748965,9.01397839 19.1379713,9.17829571 19.1379713,9.38956083 L19.1379713,11.6430554 C19.1379713,11.8543205 18.9748965,12.0186379 18.7652288,12.0186379 L17.6470013,12.0186379 L17.6470013,13.5209676 L18.7652288,13.5209676 C18.9748965,13.5209676 19.1379713,13.6852849 19.1379713,13.89655 Z" id="-copy" fill="#6B5469" transform="translate(9.568986, 10.516308) scale(-1, 1) translate(-9.568986, -10.516308) "></path>
                <path d="M6.08695652,15.4657427 L6.08695652,7.88571429 L8.68296866,7.88571429 C9.17546775,7.88571429 9.59599323,7.93289241 9.94455772,8.02725009 C10.2931222,8.12160776 10.579253,8.25615279 10.8029585,8.43088922 C11.0266641,8.60562565 11.190539,8.81705356 11.2945881,9.06517929 C11.3986372,9.31330502 11.450661,9.59287911 11.450661,9.90390996 C11.450661,10.0821411 11.4246491,10.2525066 11.3726245,10.4150115 C11.3206,10.5775163 11.2399631,10.7295348 11.1307116,10.8710713 C11.02146,11.0126078 10.88273,11.1410371 10.7145172,11.2563632 C10.5463045,11.3716892 10.346013,11.4695401 10.1136367,11.5499189 C11.1471911,11.7840657 11.6639606,12.3467086 11.6639606,13.2378644 C11.6639606,13.5593794 11.6032662,13.8564269 11.4818755,14.1290157 C11.3604849,14.4016045 11.1836041,14.6366215 10.9512278,14.8340737 C10.7188514,15.0315258 10.4327207,15.1861653 10.092827,15.2979966 C9.75293322,15.4098279 9.36448906,15.4657427 8.92748283,15.4657427 L6.08695652,15.4657427 Z M7.48640996,12.1422724 L7.48640996,14.3649087 L8.90667311,14.3649087 C9.16679587,14.3649087 9.38442864,14.3334566 9.55957797,14.2705515 C9.73472729,14.2076464 9.87519147,14.1237742 9.98097473,14.0189323 C10.086758,13.9140905 10.1630595,13.7917768 10.2098816,13.6519876 C10.2567037,13.5121985 10.2801144,13.3636748 10.2801144,13.206412 C10.2801144,13.0421597 10.2541025,12.8945097 10.202078,12.7634573 C10.1500534,12.632405 10.0685495,12.5205754 9.9575638,12.4279651 C9.84657809,12.3353548 9.70437978,12.2645876 9.53096461,12.2156614 C9.35754944,12.1667352 9.14772023,12.1422724 8.90147068,12.1422724 L7.48640996,12.1422724 Z M7.48640996,11.167248 L8.60493222,11.167248 C9.08008979,11.167248 9.44078794,11.0798811 9.68703748,10.9051447 C9.93328702,10.7304083 10.0564099,10.4525815 10.0564099,10.0716561 C10.0564099,9.67675176 9.9454259,9.39543033 9.72345448,9.22768336 C9.50148307,9.05993638 9.15465792,8.97606416 8.68296866,8.97606416 L7.48640996,8.97606416 L7.48640996,11.167248 Z" id="B+" fill="#FFFFFF"></path>
                <polygon id="Path" fill="#FFFFFF" points="14.7133896 6.13333333 14.7133896 7.92058754 16.3962795 7.92058754 16.3962795 8.7183132 14.7133896 8.7183132 14.7133896 10.5142857 13.8481506 10.5142857 13.8481506 8.7183132 12.173913 8.7183132 12.173913 7.92058754 13.8481506 7.92058754 13.8481506 6.13333333"></polygon>
            </g>
        </g>
    </g>
</svg>