<?xml version="1.0" encoding="UTF-8"?>
<svg width="19px" height="20px" viewBox="0 0 19 20" version="1.1" xmlns="http://www.w3.org/2000/svg" xmlns:xlink="http://www.w3.org/1999/xlink">
    <!-- Generator: Sketch 44.1 (41455) - http://www.bohemiancoding.com/sketch -->
    <title>calendar-o - fontawesome</title>
    <desc>Created with Sketch.</desc>
    <defs></defs>
    <g id="Assignment" stroke="none" stroke-width="1" fill="none" fill-rule="evenodd">
        <g id="New-assignment" transform="translate(-766.000000, -363.000000)" fill="#6B5469">
            <path d="M767.404682,381.571429 L782.856187,381.571429 L782.856187,370.142857 L767.404682,370.142857 L767.404682,381.571429 Z M771.618729,368 L771.618729,364.785714 C771.618729,364.584821 771.465092,364.428571 771.267559,364.428571 L770.565217,364.428571 C770.367684,364.428571 770.214047,364.584821 770.214047,364.785714 L770.214047,368 C770.214047,368.200893 770.367684,368.357143 770.565217,368.357143 L771.267559,368.357143 C771.465092,368.357143 771.618729,368.200893 771.618729,368 Z M780.046823,368 L780.046823,364.785714 C780.046823,364.584821 779.893186,364.428571 779.695652,364.428571 L778.993311,364.428571 C778.795778,364.428571 778.64214,364.584821 778.64214,364.785714 L778.64214,368 C778.64214,368.200893 778.795778,368.357143 778.993311,368.357143 L779.695652,368.357143 C779.893186,368.357143 780.046823,368.200893 780.046823,368 Z M784.26087,367.285714 L784.26087,381.571429 C784.26087,382.352679 783.624373,383 782.856187,383 L767.404682,383 C766.636497,383 766,382.352679 766,381.571429 L766,367.285714 C766,366.504464 766.636497,365.857143 767.404682,365.857143 L768.809365,365.857143 L768.809365,364.785714 C768.809365,363.803571 769.599498,363 770.565217,363 L771.267559,363 C772.233278,363 773.023411,363.803571 773.023411,364.785714 L773.023411,365.857143 L777.237458,365.857143 L777.237458,364.785714 C777.237458,363.803571 778.027592,363 778.993311,363 L779.695652,363 C780.661371,363 781.451505,363.803571 781.451505,364.785714 L781.451505,365.857143 L782.856187,365.857143 C783.624373,365.857143 784.26087,366.504464 784.26087,367.285714 Z" id="calendar-o---fontawesome"></path>
        </g>
    </g>
</svg>