<?xml version="1.0" encoding="UTF-8"?>
<svg width="20px" height="19px" viewBox="0 0 20 19" version="1.1" xmlns="http://www.w3.org/2000/svg" xmlns:xlink="http://www.w3.org/1999/xlink">
    <!-- Generator: Sketch 44.1 (41455) - http://www.bohemiancoding.com/sketch -->
    <title>Group 2</title>
    <desc>Created with Sketch.</desc>
    <defs></defs>
    <g id="Assignment" stroke="none" stroke-width="1" fill="none" fill-rule="evenodd">
        <g id="New-assignment" transform="translate(-766.000000, -897.000000)">
            <g id="Group-2" transform="translate(766.000000, 896.000000)">
                <path d="M5.83366337,17.6481848 L6.79471947,16.6871287 L4.31287129,14.2052805 L3.35181518,15.1663366 L3.35181518,16.2963696 L4.70363036,16.2963696 L4.70363036,17.6481848 L5.83366337,17.6481848 Z M11.3570957,7.84752475 C11.3570957,7.71023102 11.2620462,7.61518152 11.1247525,7.61518152 C11.0613861,7.61518152 10.9980198,7.63630363 10.9452145,7.68910891 L5.22112211,13.4132013 C5.16831683,13.4660066 5.14719472,13.5293729 5.14719472,13.5927393 C5.14719472,13.730033 5.24224422,13.8250825 5.37953795,13.8250825 C5.44290429,13.8250825 5.50627063,13.8039604 5.55907591,13.7511551 L11.2831683,8.02706271 C11.3359736,7.97425743 11.3570957,7.91089109 11.3570957,7.84752475 Z M10.7867987,5.81980198 L15.180198,10.2132013 L6.39339934,19 L2,19 L2,14.6066007 L10.7867987,5.81980198 Z M18,6.83366337 C18,7.19273927 17.8521452,7.54125413 17.6092409,7.78415842 L15.8561056,9.53729373 L11.4627063,5.14389439 L13.2158416,3.40132013 C13.4587459,3.14785479 13.8072607,3 14.1663366,3 C14.5254125,3 14.8739274,3.14785479 15.1273927,3.40132013 L17.6092409,5.87260726 C17.8521452,6.12607261 18,6.47458746 18,6.83366337 Z" id="pencil---FontAwesome" fill="#756372" transform="translate(10.000000, 11.000000) rotate(-360.000000) translate(-10.000000, -11.000000) "></path>
                <path d="M2.5,9.5 L8.5,9.5 L8.5,2.99703014 C8.5,2.72702758 8.27267657,2.5 7.99707067,2.5 L3.00292933,2.5 C2.71807543,2.5 2.5,2.71846972 2.5,2.99703014 L2.5,9.5 Z" id="Combined-Shape" stroke="#6B5469" transform="translate(5.500000, 6.000000) rotate(-405.000000) translate(-5.500000, -6.000000) "></path>
                <path d="M11.5,11.5 L11.5,18.0029699 C11.5,18.2729724 11.7273234,18.5 12.0029293,18.5 L16.9970707,18.5 C17.2819246,18.5 17.5,18.2815303 17.5,18.0029699 L17.5,11.5 L11.5,11.5 Z" id="Rectangle-4-Copy" stroke="#6B5469" transform="translate(14.500000, 15.000000) rotate(-405.000000) translate(-14.500000, -15.000000) "></path>
                <circle id="Oval" fill="#6B5469" transform="translate(4.500000, 5.500000) rotate(-45.000000) translate(-4.500000, -5.500000) " cx="4.5" cy="5.5" r="1.5"></circle>
                <path d="M13,14 L11,16" id="Line" stroke="#6B5469" stroke-linecap="square"></path>
                <path d="M15.5,15.5 L13.1081942,17.8918058" id="Line-Copy" stroke="#6B5469" stroke-linecap="square"></path>
                <path d="M5.59906132,8.40093868 L5.40093868,8.59906132" id="Line-Copy-2" stroke="#6B546A" stroke-linecap="square"></path>
            </g>
        </g>
    </g>
</svg>