<svg xmlns="http://www.w3.org/2000/svg" width="24" height="24" viewBox="0 0 24 24">
  <path fill="#554854" fill-rule="evenodd" d="M8.23076923,17 L15.7692308,17 L15.7692308,15 L8.23076923,15 L8.23076923,17 Z M8.23076923,12 L15.7692308,12 L15.7692308,9 L14.4230769,9 C13.9771635,9 13.6153846,8.6640625 13.6153846,8.25 L13.6153846,7 L8.23076923,7 L8.23076923,12 Z M17.9230769,12.5 C17.9230769,12.2265625 17.6790865,12 17.3846154,12 C17.0901442,12 16.8461538,12.2265625 16.8461538,12.5 C16.8461538,12.7734375 17.0901442,13 17.3846154,13 C17.6790865,13 17.9230769,12.7734375 17.9230769,12.5 Z M19,12.5 L19,15.75 C19,15.8828125 18.8737981,16 18.7307692,16 L16.8461538,16 L16.8461538,17.25 C16.8461538,17.6640625 16.484375,18 16.0384615,18 L7.96153846,18 C7.515625,18 7.15384615,17.6640625 7.15384615,17.25 L7.15384615,16 L5.26923077,16 C5.12620192,16 5,15.8828125 5,15.75 L5,12.5 C5,11.6796875 5.73197115,11 6.61538462,11 L7.15384615,11 L7.15384615,6.75 C7.15384615,6.3359375 7.515625,6 7.96153846,6 L13.6153846,6 C14.0612981,6 14.6754808,6.234375 14.9951923,6.53125 L16.2740385,7.71875 C16.59375,8.015625 16.8461538,8.5859375 16.8461538,9 L16.8461538,11 L17.3846154,11 C18.2680288,11 19,11.6796875 19,12.5 Z" opacity=".65"/>
</svg>
