<?xml version="1.0" encoding="UTF-8"?>
<svg width="20px" height="20px" viewBox="0 0 20 20" version="1.1" xmlns="http://www.w3.org/2000/svg" xmlns:xlink="http://www.w3.org/1999/xlink">
    <!-- Generator: Sketch 44.1 (41455) - http://www.bohemiancoding.com/sketch -->
    <title>LO</title>
    <desc>Created with Sketch.</desc>
    <defs></defs>
    <g id="Assignment" stroke="none" stroke-width="1" fill="none" fill-rule="evenodd">
        <g id="New-assignment" transform="translate(-766.000000, -565.000000)" fill="#6B5469">
            <path d="M779.333333,575 C779.333333,576.835938 777.835938,578.333333 776,578.333333 C774.164062,578.333333 772.666667,576.835938 772.666667,575 C772.666667,573.164062 774.164062,571.666667 776,571.666667 C777.835938,571.666667 779.333333,573.164062 779.333333,575 Z M776,567.916667 C772.09375,567.916667 768.916667,571.09375 768.916667,575 C768.916667,578.90625 772.09375,582.083333 776,582.083333 C779.90625,582.083333 783.083333,578.90625 783.083333,575 C783.083333,571.09375 779.90625,567.916667 776,567.916667 Z M786,575 C786,580.520833 781.520833,585 776,585 C770.479167,585 766,580.520833 766,575 C766,569.479167 770.479167,565 776,565 C781.520833,565 786,569.479167 786,575 Z" id="LO"></path>
        </g>
    </g>
</svg>