<?xml version="1.0" encoding="UTF-8" standalone="no"?>
<svg width="24px" height="24px" viewBox="0 0 24 24" version="1.1" xmlns="http://www.w3.org/2000/svg" xmlns:xlink="http://www.w3.org/1999/xlink" xmlns:sketch="http://www.bohemiancoding.com/sketch/ns">
    <!-- Generator: Sketch 3.5.2 (25235) - http://www.bohemiancoding.com/sketch -->
    <title>search</title>
    <desc>Created with Sketch.</desc>
    <defs></defs>
    <g id="Page-1" stroke="none" stroke-width="1" fill="none" fill-rule="evenodd" sketch:type="MSPage">
        <g id="search" sketch:type="MSArtboardGroup" fill="#A18CA0">
            <path d="M15.8571582,11.1428478 C15.8571582,13.8995475 13.6138519,16.1428537 10.8571522,16.1428537 C8.10045251,16.1428537 5.85714626,13.8995475 5.85714626,11.1428478 C5.85714626,8.38614806 8.10045251,6.14284182 10.8571522,6.14284182 C13.6138519,6.14284182 15.8571582,8.38614806 15.8571582,11.1428478 L15.8571582,11.1428478 Z M21.5714507,20.4285731 C21.5714507,20.0491084 21.4152005,19.6808044 21.1585038,19.4241076 L17.3303742,15.5959781 C18.2343932,14.290173 18.7143044,12.7276711 18.7143044,11.1428478 C18.7143044,6.80132474 15.1986753,3.28569555 10.8571522,3.28569555 C6.51562919,3.28569555 3,6.80132474 3,11.1428478 C3,15.4843708 6.51562919,19 10.8571522,19 C12.4419755,19 14.0044774,18.5200887 15.3102825,17.6160698 L19.1384121,21.4330386 C19.3951088,21.7008961 19.7634128,21.8571463 20.1428776,21.8571463 C20.9241285,21.8571463 21.5714507,21.2098241 21.5714507,20.4285731 L21.5714507,20.4285731 Z" id="Search---FontAwesome" sketch:type="MSShapeGroup"></path>
        </g>
    </g>
</svg>