<?xml version="1.0" encoding="UTF-8"?>
<svg width="17px" height="18px" viewBox="0 0 17 18" version="1.1" xmlns="http://www.w3.org/2000/svg" xmlns:xlink="http://www.w3.org/1999/xlink">
    <!-- Generator: Sketch 44.1 (41455) - http://www.bohemiancoding.com/sketch -->
    <title>pencil - FontAwesome</title>
    <desc>Created with Sketch.</desc>
    <defs></defs>
    <g id="Assignment" stroke="none" stroke-width="1" fill="none" fill-rule="evenodd">
        <g id="New-assignment" transform="translate(-717.000000, -1177.000000)" fill="#6B5469">
            <path d="M721.151344,1193 L722.16697,1191.98437 L719.544199,1189.3616 L718.528573,1190.37723 L718.528573,1191.57143 L719.957146,1191.57143 L719.957146,1193 L721.151344,1193 Z M726.988405,1182.64284 C726.988405,1182.49776 726.887958,1182.39731 726.742869,1182.39731 C726.675904,1182.39731 726.60894,1182.41963 726.553136,1182.47543 L720.504022,1188.52455 C720.448218,1188.58035 720.425897,1188.64732 720.425897,1188.71428 C720.425897,1188.85937 720.526343,1188.95982 720.671433,1188.95982 C720.738397,1188.95982 720.805362,1188.9375 720.861165,1188.88169 L726.91028,1182.83258 C726.966083,1182.77677 726.988405,1182.70981 726.988405,1182.64284 Z M726.385725,1180.49999 L731.028588,1185.14285 L721.742863,1194.42857 L717.1,1194.42857 L717.1,1189.78571 L726.385725,1180.49999 Z M734.008502,1181.57141 C734.008502,1181.95088 733.852252,1182.31918 733.595555,1182.57588 L731.742875,1184.42856 L727.100012,1179.7857 L728.952693,1177.94418 C729.209389,1177.67632 729.577693,1177.52007 729.957158,1177.52007 C730.336623,1177.52007 730.704927,1177.67632 730.972784,1177.94418 L733.595555,1180.55579 C733.852252,1180.82365 734.008502,1181.19195 734.008502,1181.57141 Z" id="pencil---FontAwesome"></path>
        </g>
    </g>
</svg>